<svg width="200" height="200" viewBox="0 0 200 200" xmlns="http://www.w3.org/2000/svg">
  <defs>
    <pattern id="circuit" width="100" height="100" patternUnits="userSpaceOnUse">
      <!-- Horizontal Lines -->
      <line x1="0" y1="20" x2="40" y2="20" stroke="white" stroke-width="1" />
      <line x1="60" y1="20" x2="100" y2="20" stroke="white" stroke-width="1" />
      <line x1="0" y1="80" x2="30" y2="80" stroke="white" stroke-width="1" />
      <line x1="50" y1="80" x2="100" y2="80" stroke="white" stroke-width="1" />
      
      <!-- Vertical Lines -->
      <line x1="20" y1="0" x2="20" y2="40" stroke="white" stroke-width="1" />
      <line x1="20" y1="60" x2="20" y2="100" stroke="white" stroke-width="1" />
      <line x1="80" y1="0" x2="80" y2="30" stroke="white" stroke-width="1" />
      <line x1="80" y1="50" x2="80" y2="100" stroke="white" stroke-width="1" />
      
      <!-- Nodes -->
      <circle cx="20" cy="20" r="3" fill="white" />
      <circle cx="80" cy="20" r="3" fill="white" />
      <circle cx="20" cy="80" r="3" fill="white" />
      <circle cx="80" cy="80" r="3" fill="white" />
      
      <!-- Diagonal Lines -->
      <line x1="20" y1="20" x2="50" y2="50" stroke="white" stroke-width="1" />
      <line x1="50" y1="50" x2="80" y2="80" stroke="white" stroke-width="1" />
      <line x1="80" y1="20" x2="50" y2="50" stroke="white" stroke-width="1" />
      
      <!-- Small Circles -->
      <circle cx="50" cy="50" r="2" fill="white" />
      <circle cx="30" cy="80" r="1.5" fill="white" />
      <circle cx="50" cy="80" r="1.5" fill="white" />
      <circle cx="40" cy="20" r="1.5" fill="white" />
      <circle cx="60" cy="20" r="1.5" fill="white" />
    </pattern>
  </defs>
  <rect width="200" height="200" fill="url(#circuit)" />
</svg> 